<?xml version="1.0" encoding="UTF-8"?>
<svg xmlns="http://www.w3.org/2000/svg" xmlns:xlink="http://www.w3.org/1999/xlink" width="128px" height="128px" viewBox="0 0 128 128" version="1.1">
<defs>
<radialGradient id="radial0" gradientUnits="userSpaceOnUse" cx="64.000031" cy="236" fx="64.000031" fy="236" r="51.504761" gradientTransform="matrix(1.088004,0.0461252,-0.0492739,1.162276,5.996356,-213.249149)">
<stop offset="0" style="stop-color:rgb(100%,54.901963%,0%);stop-opacity:1;"/>
<stop offset="0.56017" style="stop-color:rgb(100%,54.901963%,0%);stop-opacity:1;"/>
<stop offset="0.826949" style="stop-color:rgb(100%,47.058824%,0%);stop-opacity:1;"/>
<stop offset="1" style="stop-color:rgb(100%,43.137255%,0%);stop-opacity:1;"/>
</radialGradient>
<radialGradient id="radial1" gradientUnits="userSpaceOnUse" cx="64.000031" cy="236" fx="64.000031" fy="236" r="51.504761" gradientTransform="matrix(1.088004,0.0461252,-0.0492739,1.162276,5.996356,-213.249149)">
<stop offset="0" style="stop-color:rgb(100%,54.901963%,0%);stop-opacity:1;"/>
<stop offset="0.56017" style="stop-color:rgb(100%,54.901963%,0%);stop-opacity:1;"/>
<stop offset="0.826949" style="stop-color:rgb(100%,47.058824%,0%);stop-opacity:1;"/>
<stop offset="1" style="stop-color:rgb(100%,43.137255%,0%);stop-opacity:1;"/>
</radialGradient>
<clipPath id="clip2">
  <rect x="0" y="0" width="128" height="128"/>
</clipPath>
<g id="surface86" clip-path="url(#clip2)">
<path style=" stroke:none;fill-rule:evenodd;fill:url(#radial1);" d="M 21.621094 12.496094 L 106.378906 12.496094 C 111.417969 12.496094 115.503906 16.582031 115.503906 21.621094 L 115.503906 106.378906 C 115.503906 111.417969 111.417969 115.503906 106.378906 115.503906 L 21.621094 115.503906 C 16.582031 115.503906 12.496094 111.417969 12.496094 106.378906 L 12.496094 21.621094 C 12.496094 16.582031 16.582031 12.496094 21.621094 12.496094 Z M 21.621094 12.496094 "/>
<path style=" stroke:none;fill-rule:nonzero;fill:rgb(100%,100%,100%);fill-opacity:1;" d="M 58.269531 19.871094 L 40.890625 65.304688 C 40.769531 65.722656 40.867188 66.199219 41.058594 66.449219 C 41.285156 66.722656 41.480469 67.03125 42.113281 67.082031 L 54.296875 67.03125 C 54.707031 67.027344 55.054688 67.214844 55.203125 67.585938 C 55.320312 67.933594 55.332031 68.253906 55.222656 68.71875 L 44.667969 107.390625 C 44.585938 107.699219 44.480469 108.390625 45.1875 108.859375 C 45.675781 109.148438 46.605469 108.984375 47.171875 108.425781 L 86.933594 58.273438 C 87.199219 57.867188 87.21875 57.144531 87.066406 56.800781 C 86.90625 56.464844 86.570312 55.988281 85.792969 55.933594 L 67.242188 55.226562 C 66.699219 55.128906 66.527344 54.875 66.363281 54.664062 C 66.15625 54.355469 66.113281 53.910156 66.320312 53.433594 L 81.527344 20.449219 C 81.738281 20.007812 81.726562 19.707031 81.609375 19.464844 C 81.492188 19.261719 81.15625 19.015625 80.550781 19.015625 L 59.835938 19 C 59.558594 19.023438 58.582031 19.105469 58.269531 19.871094 Z M 58.269531 19.871094 "/>
</g>
<clipPath id="clip1">
  <rect x="0" y="0" width="128" height="128"/>
</clipPath>
<filter id="alpha" filterUnits="objectBoundingBox" x="0%" y="0%" width="100%" height="100%">
  <feColorMatrix type="matrix" in="SourceGraphic" values="0 0 0 0 1 0 0 0 0 1 0 0 0 0 1 0 0 0 1 0"/>
</filter>
<g id="surface89" clip-path="url(#clip1)" filter="url(#alpha)">
<use xlink:href="#surface86"/>
</g>
<mask id="mask0">
<use xlink:href="#surface89"/>
</mask>
<mask id="mask1">
  <g filter="url(#alpha)">
<rect x="0" y="0" width="128" height="128" style="fill:rgb(0%,0%,0%);fill-opacity:0.8;stroke:none;"/>
  </g>
</mask>
<linearGradient id="linear0" gradientUnits="userSpaceOnUse" x1="300" y1="235" x2="428" y2="235" gradientTransform="matrix(0.000000000000000023,0.37,-0.98462,0.00000000000000006,295.38501,-30.360001)">
<stop offset="0" style="stop-color:rgb(97.647059%,94.117647%,41.960785%);stop-opacity:1;"/>
<stop offset="1" style="stop-color:rgb(96.078432%,76.078433%,6.666667%);stop-opacity:1;"/>
</linearGradient>
<clipPath id="clip4">
  <rect x="0" y="0" width="128" height="128"/>
</clipPath>
<g id="surface83" clip-path="url(#clip4)">
<path style=" stroke:none;fill-rule:nonzero;fill:url(#linear0);" d="M 128 80.640625 L 128 128 L 0 128 L 0 80.640625 Z M 128 80.640625 "/>
<path style=" stroke:none;fill-rule:nonzero;fill:rgb(0%,0%,0%);fill-opacity:1;" d="M 13.308594 80.640625 L 60.664062 128 L 81.878906 128 L 34.519531 80.640625 Z M 55.730469 80.640625 L 103.09375 128 L 124.308594 128 L 76.945312 80.640625 Z M 98.160156 80.640625 L 128 110.480469 L 128 89.269531 L 119.371094 80.640625 Z M 0 88.546875 L 0 109.761719 L 18.238281 128 L 39.453125 128 Z M 0 88.546875 "/>
</g>
<clipPath id="clip3">
  <rect x="0" y="0" width="128" height="128"/>
</clipPath>
<g id="surface88" clip-path="url(#clip3)">
<use xlink:href="#surface83" mask="url(#mask1)"/>
</g>
</defs>
<g id="surface56">
<path style=" stroke:none;fill-rule:evenodd;fill:url(#radial0);" d="M 21.621094 12.496094 L 106.378906 12.496094 C 111.417969 12.496094 115.503906 16.582031 115.503906 21.621094 L 115.503906 106.378906 C 115.503906 111.417969 111.417969 115.503906 106.378906 115.503906 L 21.621094 115.503906 C 16.582031 115.503906 12.496094 111.417969 12.496094 106.378906 L 12.496094 21.621094 C 12.496094 16.582031 16.582031 12.496094 21.621094 12.496094 Z M 21.621094 12.496094 "/>
<path style=" stroke:none;fill-rule:nonzero;fill:rgb(100%,100%,100%);fill-opacity:1;" d="M 58.269531 19.871094 L 40.890625 65.304688 C 40.769531 65.722656 40.867188 66.199219 41.058594 66.449219 C 41.285156 66.722656 41.480469 67.03125 42.113281 67.082031 L 54.296875 67.03125 C 54.707031 67.027344 55.054688 67.214844 55.203125 67.585938 C 55.320312 67.933594 55.332031 68.253906 55.222656 68.71875 L 44.667969 107.390625 C 44.585938 107.699219 44.480469 108.390625 45.1875 108.859375 C 45.675781 109.148438 46.605469 108.984375 47.171875 108.425781 L 86.933594 58.273438 C 87.199219 57.867188 87.21875 57.144531 87.066406 56.800781 C 86.90625 56.464844 86.570312 55.988281 85.792969 55.933594 L 67.242188 55.226562 C 66.699219 55.128906 66.527344 54.875 66.363281 54.664062 C 66.15625 54.355469 66.113281 53.910156 66.320312 53.433594 L 81.527344 20.449219 C 81.738281 20.007812 81.726562 19.707031 81.609375 19.464844 C 81.492188 19.261719 81.15625 19.015625 80.550781 19.015625 L 59.835938 19 C 59.558594 19.023438 58.582031 19.105469 58.269531 19.871094 Z M 58.269531 19.871094 "/>
<use xlink:href="#surface88" mask="url(#mask0)"/>
</g>
</svg>
