<?xml version="1.0" encoding="UTF-8"?>
<svg xmlns="http://www.w3.org/2000/svg" xmlns:xlink="http://www.w3.org/1999/xlink" width="16px" height="16px" viewBox="0 0 16 16" version="1.1">
<g id="surface211465">
<path style=" stroke:none;fill-rule:nonzero;fill:rgb(74.509805%,74.509805%,74.509805%);fill-opacity:1;" d="M 7.132812 1.320312 L 4.503906 8.195312 C 4.484375 8.261719 4.5 8.332031 4.527344 8.371094 C 4.5625 8.410156 4.59375 8.457031 4.6875 8.464844 L 6.53125 8.457031 C 6.59375 8.457031 6.648438 8.484375 6.671875 8.542969 C 6.6875 8.59375 6.691406 8.644531 6.671875 8.714844 L 5.074219 14.566406 C 5.0625 14.613281 5.046875 14.71875 5.15625 14.789062 C 5.226562 14.832031 5.367188 14.808594 5.453125 14.722656 L 11.472656 7.132812 C 11.511719 7.070312 11.515625 6.960938 11.492188 6.910156 C 11.46875 6.859375 11.417969 6.789062 11.300781 6.777344 L 8.492188 6.671875 C 8.410156 6.65625 8.382812 6.617188 8.359375 6.585938 C 8.328125 6.539062 8.320312 6.472656 8.351562 6.402344 L 10.652344 1.410156 C 10.683594 1.34375 10.683594 1.296875 10.664062 1.261719 C 10.648438 1.230469 10.597656 1.191406 10.507812 1.191406 L 7.371094 1.191406 C 7.328125 1.191406 7.179688 1.207031 7.132812 1.320312 Z M 7.132812 1.320312 "/>
</g>
</svg>
