<?xml version="1.0" encoding="UTF-8"?>
<svg height="128px" viewBox="0 0 128 128" width="128px" xmlns="http://www.w3.org/2000/svg" xmlns:xlink="http://www.w3.org/1999/xlink">
    <linearGradient id="a" gradientTransform="matrix(0.232143 0 0 0.328947 -8.56691 263.826965)" gradientUnits="userSpaceOnUse" x1="88.595924" x2="536.595947" y1="-461.554016" y2="-461.554016">
        <stop offset="0" stop-color="#c64600"/>
        <stop offset="0.0384615" stop-color="#ffa348"/>
        <stop offset="0.0768555" stop-color="#e66100"/>
        <stop offset="0.923077" stop-color="#e66100"/>
        <stop offset="0.961538" stop-color="#ffa348"/>
        <stop offset="1" stop-color="#c64600"/>
    </linearGradient>
    <clipPath id="b">
        <rect height="128" width="128"/>
    </clipPath>
    <clipPath id="c">
        <rect height="128" width="128"/>
    </clipPath>
    <filter id="d" height="100%" width="100%" x="0%" y="0%">
        <feColorMatrix in="SourceGraphic" type="matrix" values="0 0 0 0 1 0 0 0 0 1 0 0 0 0 1 0 0 0 1 0"/>
    </filter>
    <mask id="e">
        <g clip-path="url(#c)" filter="url(#d)">
            <g clip-path="url(#b)">
                <path d="m 20 16 h 88 c 4.417969 0 8 3.582031 8 8 v 84 c 0 4.417969 -3.582031 8 -8 8 h -88 c -4.417969 0 -8 -3.582031 -8 -8 v -84 c 0 -4.417969 3.582031 -8 8 -8 z m 0 0" fill="url(#a)"/>
                <path d="m 20 12 h 88 c 4.417969 0 8 3.582031 8 8 v 84 c 0 4.417969 -3.582031 8 -8 8 h -88 c -4.417969 0 -8 -3.582031 -8 -8 v -84 c 0 -4.417969 3.582031 -8 8 -8 z m 0 0" fill="#ff7800"/>
                <path d="m 62.390625 37.605469 l -12.320313 32.214843 c -0.09375 0.3125 -0.019531 0.640626 0.109376 0.824219 c 0.164062 0.183594 0.3125 0.402344 0.75 0.441407 l 8.640624 -0.039063 c 0.292969 0 0.550782 0.128906 0.660157 0.402344 c 0.070312 0.238281 0.089843 0.476562 0 0.808593 l -7.488281 27.421876 c -0.054688 0.21875 -0.128907 0.710937 0.382812 1.042968 c 0.332031 0.199219 0.992188 0.089844 1.394531 -0.3125 l 28.207031 -35.566406 c 0.183594 -0.292969 0.203126 -0.804688 0.089844 -1.042969 c -0.109375 -0.238281 -0.347656 -0.570312 -0.894531 -0.625 l -13.164063 -0.492187 c -0.382812 -0.074219 -0.511718 -0.257813 -0.621093 -0.402344 c -0.144531 -0.222656 -0.183594 -0.53125 -0.035157 -0.863281 l 10.78125 -23.394531 c 0.144532 -0.308594 0.144532 -0.527344 0.054688 -0.695313 c -0.074219 -0.144531 -0.3125 -0.328125 -0.730469 -0.328125 h -14.699219 c -0.203124 0 -0.898437 0.074219 -1.117187 0.605469 z m 0 0" fill-opacity="0.103774"/>
                <path d="m 62.390625 33.605469 l -12.320313 32.214843 c -0.09375 0.3125 -0.019531 0.640626 0.109376 0.824219 c 0.164062 0.183594 0.3125 0.402344 0.75 0.441407 l 8.640624 -0.039063 c 0.292969 0 0.550782 0.128906 0.660157 0.402344 c 0.070312 0.238281 0.089843 0.476562 0 0.808593 l -7.488281 27.421876 c -0.054688 0.21875 -0.128907 0.710937 0.382812 1.042968 c 0.332031 0.199219 0.992188 0.089844 1.394531 -0.3125 l 28.207031 -35.566406 c 0.183594 -0.292969 0.203126 -0.804688 0.089844 -1.042969 c -0.109375 -0.238281 -0.347656 -0.570312 -0.894531 -0.625 l -13.164063 -0.492187 c -0.382812 -0.074219 -0.511718 -0.257813 -0.621093 -0.402344 c -0.144531 -0.222656 -0.183594 -0.53125 -0.035157 -0.863281 l 10.78125 -23.394531 c 0.144532 -0.308594 0.144532 -0.527344 0.054688 -0.695313 c -0.074219 -0.144531 -0.3125 -0.328125 -0.730469 -0.328125 h -14.699219 c -0.203124 0 -0.898437 0.074219 -1.117187 0.605469 z m 0 0" fill="#ffffff"/>
            </g>
        </g>
    </mask>
    <mask id="f">
        <g filter="url(#d)">
            <rect fill-opacity="0.8" height="128" width="128"/>
        </g>
    </mask>
    <linearGradient id="g" gradientTransform="matrix(0 0.37 -0.98462 0 295.38501 -30.360001)" gradientUnits="userSpaceOnUse" x1="300" x2="428" y1="235" y2="235">
        <stop offset="0" stop-color="#f9f06b"/>
        <stop offset="1" stop-color="#f5c211"/>
    </linearGradient>
    <clipPath id="h">
        <rect height="128" width="128"/>
    </clipPath>
    <clipPath id="i">
        <rect height="128" width="128"/>
    </clipPath>
    <path d="m 20 16 h 88 c 4.417969 0 8 3.582031 8 8 v 84 c 0 4.417969 -3.582031 8 -8 8 h -88 c -4.417969 0 -8 -3.582031 -8 -8 v -84 c 0 -4.417969 3.582031 -8 8 -8 z m 0 0" fill="url(#a)"/>
    <path d="m 20 12 h 88 c 4.417969 0 8 3.582031 8 8 v 84 c 0 4.417969 -3.582031 8 -8 8 h -88 c -4.417969 0 -8 -3.582031 -8 -8 v -84 c 0 -4.417969 3.582031 -8 8 -8 z m 0 0" fill="#ff7800"/>
    <path d="m 62.390625 37.605469 l -12.320313 32.214843 c -0.09375 0.3125 -0.019531 0.640626 0.109376 0.824219 c 0.164062 0.183594 0.3125 0.402344 0.75 0.441407 l 8.640624 -0.039063 c 0.292969 0 0.550782 0.128906 0.660157 0.402344 c 0.070312 0.238281 0.089843 0.476562 0 0.808593 l -7.488281 27.421876 c -0.054688 0.21875 -0.128907 0.710937 0.382812 1.042968 c 0.332031 0.199219 0.992188 0.089844 1.394531 -0.3125 l 28.207031 -35.566406 c 0.183594 -0.292969 0.203126 -0.804688 0.089844 -1.042969 c -0.109375 -0.238281 -0.347656 -0.570312 -0.894531 -0.625 l -13.164063 -0.492187 c -0.382812 -0.074219 -0.511718 -0.257813 -0.621093 -0.402344 c -0.144531 -0.222656 -0.183594 -0.53125 -0.035157 -0.863281 l 10.78125 -23.394531 c 0.144532 -0.308594 0.144532 -0.527344 0.054688 -0.695313 c -0.074219 -0.144531 -0.3125 -0.328125 -0.730469 -0.328125 h -14.699219 c -0.203124 0 -0.898437 0.074219 -1.117187 0.605469 z m 0 0" fill-opacity="0.103774"/>
    <path d="m 62.390625 33.605469 l -12.320313 32.214843 c -0.09375 0.3125 -0.019531 0.640626 0.109376 0.824219 c 0.164062 0.183594 0.3125 0.402344 0.75 0.441407 l 8.640624 -0.039063 c 0.292969 0 0.550782 0.128906 0.660157 0.402344 c 0.070312 0.238281 0.089843 0.476562 0 0.808593 l -7.488281 27.421876 c -0.054688 0.21875 -0.128907 0.710937 0.382812 1.042968 c 0.332031 0.199219 0.992188 0.089844 1.394531 -0.3125 l 28.207031 -35.566406 c 0.183594 -0.292969 0.203126 -0.804688 0.089844 -1.042969 c -0.109375 -0.238281 -0.347656 -0.570312 -0.894531 -0.625 l -13.164063 -0.492187 c -0.382812 -0.074219 -0.511718 -0.257813 -0.621093 -0.402344 c -0.144531 -0.222656 -0.183594 -0.53125 -0.035157 -0.863281 l 10.78125 -23.394531 c 0.144532 -0.308594 0.144532 -0.527344 0.054688 -0.695313 c -0.074219 -0.144531 -0.3125 -0.328125 -0.730469 -0.328125 h -14.699219 c -0.203124 0 -0.898437 0.074219 -1.117187 0.605469 z m 0 0" fill="#ffffff"/>
    <g clip-path="url(#i)" mask="url(#e)">
        <g clip-path="url(#h)" mask="url(#f)">
            <path d="m 128 80.640625 v 47.359375 h -128 v -47.359375 z m 0 0" fill="url(#g)"/>
            <path d="m 13.308594 80.640625 l 47.355468 47.359375 h 21.214844 l -47.359375 -47.359375 z m 42.421875 0 l 47.363281 47.359375 h 21.214844 l -47.363282 -47.359375 z m 42.429687 0 l 29.839844 29.839844 v -21.210938 l -8.628906 -8.628906 z m -98.160156 7.90625 v 21.214844 l 18.238281 18.238281 h 21.214844 z m 0 0"/>
        </g>
    </g>
</svg>
