<?xml version="1.0" encoding="UTF-8"?>
<svg height="16px" viewBox="0 0 16 16" width="16px" xmlns="http://www.w3.org/2000/svg">
    <path d="m 7.628906 1.128906 l -2.628906 6.875 c -0.015625 0.066406 0 0.136719 0.027344 0.175782 c 0.03125 0.039062 0.066406 0.085937 0.15625 0.09375 l 1.84375 -0.007813 c 0.0625 0 0.121094 0.027344 0.140625 0.085937 c 0.015625 0.050782 0.019531 0.101563 0 0.171876 l -1.59375 5.851562 c -0.015625 0.046875 -0.03125 0.152344 0.078125 0.222656 c 0.070312 0.042969 0.214844 0.019532 0.296875 -0.066406 l 6.019531 -7.589844 c 0.039062 -0.0625 0.046875 -0.171875 0.019531 -0.222656 c -0.023437 -0.050781 -0.074219 -0.121094 -0.191406 -0.132812 l -2.804687 -0.105469 c -0.085938 -0.015625 -0.113282 -0.054688 -0.132813 -0.085938 c -0.035156 -0.046875 -0.042969 -0.113281 -0.011719 -0.183593 l 2.304688 -4.992188 c 0.03125 -0.066406 0.03125 -0.113281 0.011718 -0.148438 c -0.015624 -0.03125 -0.070312 -0.070312 -0.15625 -0.070312 h -3.136718 c -0.042969 0 -0.191406 0.015625 -0.242188 0.128906 z m 0 0" fill="#241f31"/>
</svg>
